<svg xmlns="http://www.w3.org/2000/svg" viewBox="0 0 1648.24 190.49"><defs><style>.cls-1{fill:#ed1c24;}</style></defs><g id="Layer_2" data-name="Layer 2"><g id="Layer_1-2" data-name="Layer 1"><polygon class="cls-1" points="1609.53 59.52 1593.41 88.03 1546.06 3.99 1498.68 88.01 1482.59 59.49 1447.9 121.01 1443.14 129.39 1403.03 58.26 1386.91 86.78 1339.56 2.74 1292.18 86.76 1276.09 58.23 1236.72 128.05 1196.81 57.26 1180.68 85.77 1133.33 1.73 1085.95 85.75 1069.86 57.23 1056.8 80.39 1030.31 127.05 990.84 57.06 990.71 57.29 990.59 57.06 974.59 85.35 927.37 1.54 927.24 1.76 927.12 1.54 879.86 85.33 863.9 57.03 863.77 57.26 863.64 57.03 824.14 127.09 797.67 80.14 797.57 80.2 784.33 56.72 768.2 85.23 720.86 1.2 673.48 85.21 657.38 56.69 618.02 126.5 578.1 55.71 561.98 84.22 514.63 0.19 467.25 84.21 451.16 55.69 438.05 78.94 411.6 125.51 372.14 55.52 372.01 55.74 371.89 55.52 355.89 83.81 308.66 0 308.54 0.22 308.41 0 261.16 83.79 245.19 55.49 245.07 55.72 244.94 55.49 205.44 125.55 178.97 78.6 178.94 78.61 165.92 55.52 149.8 84.03 102.45 0 55.07 84.02 38.98 55.49 0.91 123.01 0 124.61 0 124.62 0 156.4 0 185.37 12.46 163.42 12.54 163.46 26.99 137.83 39.03 116.64 55.07 145.08 102.44 61.09 149.75 145.06 165.88 116.53 192.34 163.46 192.37 163.45 205.37 186.49 218.46 163.44 218.5 163.46 218.56 163.36 218.75 163.46 245.08 116.78 261.04 145.08 261.17 144.86 261.29 145.08 308.53 61.31 355.71 145.06 355.84 144.84 355.96 145.06 371.92 116.85 411.33 186.75 424.51 163.54 424.72 163.66 451.17 116.75 467.26 145.27 514.62 61.28 561.93 145.25 577.93 116.97 617.81 187.69 630.9 164.64 630.95 164.66 639.75 149.04 657.46 117.87 673.48 146.28 720.84 62.29 768.15 146.26 784.29 117.73 810.75 164.66 810.86 164.61 824.07 188.03 837.16 164.98 837.21 165 837.27 164.9 837.46 165.01 863.78 118.32 879.74 146.62 879.87 146.4 879.99 146.62 927.23 62.86 974.41 146.6 974.54 146.38 974.66 146.6 990.62 118.39 1030.03 188.29 1043.21 165.08 1043.42 165.2 1069.87 118.29 1085.96 146.81 1133.32 62.83 1180.63 146.79 1196.63 118.5 1236.51 189.23 1249.6 166.18 1249.65 166.21 1258.53 150.46 1276.16 119.41 1292.18 147.82 1339.55 63.83 1386.86 147.8 1402.89 119.45 1442.95 190.49 1456.05 167.4 1456.15 167.46 1474.15 135.54 1482.63 120.61 1498.69 149.07 1546.05 65.09 1593.36 149.05 1609.34 120.8 1648.24 189.79 1648.24 160.53 1648.24 128.71 1648.24 128.16 1609.53 59.52"/></g></g></svg>