<svg xmlns="http://www.w3.org/2000/svg" viewBox="0 0 245.66 374.31"><defs><style>.cls-1{fill:#ed1c24;}.cls-2,.cls-3{fill:none;stroke-width:30px;}.cls-2{stroke:#ed1c24;}.cls-3{stroke:#231f20;}</style></defs><g id="Layer_2" data-name="Layer 2"><g id="Layer_1-2" data-name="Layer 1"><path class="cls-1" d="M19.86,328.36l39.51-70.07,16.09,28.52,47.37-84,47.33,84,16.13-28.52,39.51,70.07c-103,69.65-205.94,0-205.94,0"/><path class="cls-2" d="M19.86,328.36l39.51-70.07,16.09,28.52,47.37-84,47.33,84,16.13-28.52,39.51,70.07C122.83,398,19.86,328.36,19.86,328.36Z"/><path class="cls-3" d="M234,61.06a157.23,157.23,0,0,0-222.36,0"/><path class="cls-3" d="M191.79,103.3a97.5,97.5,0,0,0-137.88,0"/><path class="cls-3" d="M149.57,145.52a37.81,37.81,0,0,0-53.46,0"/></g></g></svg>